<?xml version="1.0" encoding="utf-8"?>
<!-- Generator: Adobe Illustrator 24.1.1, SVG Export Plug-In . SVG Version: 6.00 Build 0)  -->
<svg version="1.1" id="Calque_1" xmlns="http://www.w3.org/2000/svg" xmlns:xlink="http://www.w3.org/1999/xlink" x="0px" y="0px"
	 viewBox="0 0 847 1058.8" style="enable-background:new 0 0 847 1058.8;" xml:space="preserve">
<style type="text/css">
	.st0{fill-rule:evenodd;clip-rule:evenodd;fill:#FFFFFF;}
</style>
<path class="st0" d="M445.5,706.1v-322c0-19,8-296,1-321c-3-15-20-26-38-18c-22,9-15,73-15,112c0,104-4,208-4,314l2,241
	c-38-20-100-110-129-69c-19,25,8,39,18,48c41,36,77,65,120,98c53,40,48-4,114-78c13-14,70-69,73-76c10-20-6-40-27-38
	C534.5,599.1,455.5,701.1,445.5,706.1z"/>
</svg>
